# xmcd
#
# Track frame offsets:
#	150
#	17330
#	35112
#	47137
#	60765
#	75051
#	92725
#	108964
#	131184
#	149389
#	167994
#	176866
#	183412
#	197098
#	231512
#	245929
#	265954
#	279133
#
# Disc length: 4173 seconds
# Revision: 0
# Processed by: cddbd v1.5.2PL0 Copyright (c) Steve Scherf et al.
# Submitted via: dBpowerAMP V12.0
#
DISCID=fc104b12
DTITLE=Martin C. Herberg (1960s - 2016 Martin Carl Herberg 1953 -) - Missing pieces (2012-2016) 2CDs - CD1
DYEAR=2016
DGENRE=Germany English Wuppertal Liedermacher Folk Songwriter Blues Instrumental AccousticGuitar Cello Percussion Violin Viola
TTITLE0=On the way home (2005)
TTITLE1=On a cold and rainy day (2015 Original 1995)
TTITLE2=Now I would rather be with you (2013-2016)
TTITLE3=I wonder where my baby is tonight (2015 Original 1990s)
TTITLE4=A child´s dream (2015 Original 1990)
TTITLE5=Dreaming of the caribbean sea (2013-2016 Original 2012)
TTITLE6=Ana Maria (2016? Original Annemarie was her name 1980s)
TTITLE7=In my weirdest dreams (year unknown)
TTITLE8=My castle in the sky (year unknown)
TTITLE9=Looking at a landscape from above (2016 Original 2014)
TTITLE10=I wanna go home (part 1 Prologue 2016)
TTITLE11=I wanna go home (part 2 Interlude 2016)
TTITLE12=I wanna go home (part 3 Conclusion 2016)
TTITLE13=Mare mediterraneum (part 1 2013-2016)
TTITLE14=Mare mediterraneum (part 2 2013-2016)
TTITLE15=Mare mediterraneum (part 3 2013-2016)
TTITLE16=Mare mediterraneum (part 4 2013-2016)
TTITLE17=Space cowboy (feat. Grit Werner 2016 Original 2010)
EXTD=
EXTT0=
EXTT1=
EXTT2=
EXTT3=
EXTT4=
EXTT5=
EXTT6=
EXTT7=
EXTT8=
EXTT9=
EXTT10=
EXTT11=
EXTT12=
EXTT13=
EXTT14=
EXTT15=
EXTT16=
EXTT17=
PLAYORDER=
